HIERARCHY
ROOT mixamorig:Hips
{
	OFFSET 0.000000 99.791901 0.000000
	CHANNELS 6 Xposition Yposition Zposition Xrotation Yrotation Zrotation
	JOINT mixamorig:Spine
	{
		OFFSET 0.000038 9.923500 -1.227300
		CHANNELS 6 Xposition Yposition Zposition Xrotation Yrotation Zrotation
		JOINT mixamorig:Spine1
		{
			OFFSET -0.001154 11.645462 -1.422353
			CHANNELS 3 Xrotation Yrotation Zrotation
			JOINT mixamorig:Spine2
			{
				OFFSET -0.001065 13.360161 -1.626458
				CHANNELS 3 Xrotation Yrotation Zrotation
				JOINT mixamorig:Neck
				{
					OFFSET -0.001308 15.032516 0.792905
					CHANNELS 6 Xposition Yposition Zposition Xrotation Yrotation Zrotation
					JOINT mixamorig:Head
					{
						OFFSET -0.000902 10.321808 3.142400
						CHANNELS 6 Xposition Yposition Zposition Xrotation Yrotation Zrotation
						JOINT mixamorig:HeadTop_End
						{
							OFFSET -0.001416 18.474701 6.636400
							CHANNELS 6 Xposition Yposition Zposition Xrotation Yrotation Zrotation
							End Site
							{
								OFFSET -0.001707 19.630493 0.000000
							}
						}
					}
				}
				JOINT mixamorig:LeftShoulder
				{
					OFFSET 6.105007 9.110962 0.705601
					CHANNELS 6 Xposition Yposition Zposition Xrotation Yrotation Zrotation
					JOINT mixamorig:LeftArm
					{
						OFFSET 12.655048 -0.266434 -2.600898
						CHANNELS 3 Xrotation Yrotation Zrotation
						JOINT mixamorig:LeftForeArm
						{
							OFFSET 27.404696 0.000000 0.000000
							CHANNELS 3 Xrotation Yrotation Zrotation
							JOINT mixamorig:LeftHand
							{
								OFFSET 27.614513 0.000000 0.000000
								CHANNELS 3 Xrotation Yrotation Zrotation
								JOINT mixamorig:LeftHandThumb1
								{
									OFFSET 3.788795 -2.167099 3.003002
									CHANNELS 6 Xposition Yposition Zposition Xrotation Yrotation Zrotation
									JOINT mixamorig:LeftHandThumb2
									{
										OFFSET 3.675461 -2.122025 2.122029
										CHANNELS 6 Xposition Yposition Zposition Xrotation Yrotation Zrotation
										JOINT mixamorig:LeftHandThumb3
										{
											OFFSET 3.394363 -1.959732 1.959735
											CHANNELS 6 Xposition Yposition Zposition Xrotation Yrotation Zrotation
											JOINT mixamorig:LeftHandThumb4
											{
												OFFSET 2.679405 -1.546951 1.546957
												CHANNELS 6 Xposition Yposition Zposition Xrotation Yrotation Zrotation
												End Site
												{
													OFFSET 2.400513 -1.530563 1.964770
												}
											}
										}
									}
								}
								JOINT mixamorig:LeftHandIndex1
								{
									OFFSET 12.266594 -0.231796 2.822001
									CHANNELS 6 Xposition Yposition Zposition Xrotation Yrotation Zrotation
									JOINT mixamorig:LeftHandIndex2
									{
										OFFSET 3.891998 0.000000 0.000000
										CHANNELS 3 Xrotation Yrotation Zrotation
										JOINT mixamorig:LeftHandIndex3
										{
											OFFSET 3.415207 0.000000 0.000000
											CHANNELS 3 Xrotation Yrotation Zrotation
											JOINT mixamorig:LeftHandIndex4
											{
												OFFSET 3.077995 0.000000 0.000000
												CHANNELS 3 Xrotation Yrotation Zrotation
												End Site
												{
													OFFSET 3.078003 0.000000 0.000140
												}
											}
										}
									}
								}
								JOINT mixamorig:LeftHandMiddle1
								{
									OFFSET 12.775497 0.000000 0.000000
									CHANNELS 6 Xposition Yposition Zposition Xrotation Yrotation Zrotation
									JOINT mixamorig:LeftHandMiddle2
									{
										OFFSET 3.613998 0.000000 0.000000
										CHANNELS 3 Xrotation Yrotation Zrotation
										JOINT mixamorig:LeftHandMiddle3
										{
											OFFSET 3.459793 0.000000 0.000000
											CHANNELS 3 Xrotation Yrotation Zrotation
											JOINT mixamorig:LeftHandMiddle4
											{
												OFFSET 3.680214 0.000000 0.000000
												CHANNELS 3 Xrotation Yrotation Zrotation
												End Site
												{
													OFFSET 3.680199 0.000031 -0.004817
												}
											}
										}
									}
								}
								JOINT mixamorig:LeftHandRing1
								{
									OFFSET 12.146996 0.009995 -2.216599
									CHANNELS 6 Xposition Yposition Zposition Xrotation Yrotation Zrotation
									JOINT mixamorig:LeftHandRing2
									{
										OFFSET 3.601196 0.000000 0.000000
										CHANNELS 3 Xrotation Yrotation Zrotation
										JOINT mixamorig:LeftHandRing3
										{
											OFFSET 3.307304 0.000000 0.000000
											CHANNELS 3 Xrotation Yrotation Zrotation
											JOINT mixamorig:LeftHandRing4
											{
												OFFSET 3.660095 0.000000 0.000000
												CHANNELS 3 Xrotation Yrotation Zrotation
												End Site
												{
													OFFSET 3.660095 -0.000107 0.005639
												}
											}
										}
									}
								}
								JOINT mixamorig:LeftHandPinky1
								{
									OFFSET 10.908195 -0.226105 -4.725800
									CHANNELS 6 Xposition Yposition Zposition Xrotation Yrotation Zrotation
									JOINT mixamorig:LeftHandPinky2
									{
										OFFSET 4.136703 0.000000 0.000000
										CHANNELS 3 Xrotation Yrotation Zrotation
										JOINT mixamorig:LeftHandPinky3
										{
											OFFSET 2.594803 0.000000 0.000000
											CHANNELS 3 Xrotation Yrotation Zrotation
											JOINT mixamorig:LeftHandPinky4
											{
												OFFSET 2.923904 0.000000 0.000000
												CHANNELS 3 Xrotation Yrotation Zrotation
												End Site
												{
													OFFSET 2.923897 0.000015 -0.003363
												}
											}
										}
									}
								}
							}
						}
					}
				}
				JOINT mixamorig:RightShoulder
				{
					OFFSET -6.106493 9.110001 0.705582
					CHANNELS 6 Xposition Yposition Zposition Xrotation Yrotation Zrotation
					JOINT mixamorig:RightArm
					{
						OFFSET -12.655064 -0.265533 -2.600914
						CHANNELS 3 Xrotation Yrotation Zrotation
						JOINT mixamorig:RightForeArm
						{
							OFFSET -27.404697 0.000000 -0.000000
							CHANNELS 3 Xrotation Yrotation Zrotation
							JOINT mixamorig:RightHand
							{
								OFFSET -27.614510 0.000000 -0.000000
								CHANNELS 3 Xrotation Yrotation Zrotation
								JOINT mixamorig:RightHandThumb1
								{
									OFFSET -3.788803 -2.167099 3.003001
									CHANNELS 6 Xposition Yposition Zposition Xrotation Yrotation Zrotation
									JOINT mixamorig:RightHandThumb2
									{
										OFFSET -3.675461 -2.122025 2.122028
										CHANNELS 6 Xposition Yposition Zposition Xrotation Yrotation Zrotation
										JOINT mixamorig:RightHandThumb3
										{
											OFFSET -3.394363 -1.959732 1.959735
											CHANNELS 6 Xposition Yposition Zposition Xrotation Yrotation Zrotation
											JOINT mixamorig:RightHandThumb4
											{
												OFFSET -2.679405 -1.546951 1.546957
												CHANNELS 6 Xposition Yposition Zposition Xrotation Yrotation Zrotation
												End Site
												{
													OFFSET -2.398972 -1.531448 1.965965
												}
											}
										}
									}
								}
								JOINT mixamorig:RightHandIndex1
								{
									OFFSET -12.266602 -0.231796 2.822000
									CHANNELS 6 Xposition Yposition Zposition Xrotation Yrotation Zrotation
									JOINT mixamorig:RightHandIndex2
									{
										OFFSET -3.891998 0.000000 0.000000
										CHANNELS 3 Xrotation Yrotation Zrotation
										JOINT mixamorig:RightHandIndex3
										{
											OFFSET -3.415207 0.000000 0.000000
											CHANNELS 3 Xrotation Yrotation Zrotation
											JOINT mixamorig:RightHandIndex4
											{
												OFFSET -3.077995 0.000000 0.000000
												CHANNELS 3 Xrotation Yrotation Zrotation
												End Site
												{
													OFFSET -3.077995 0.000504 -0.008460
												}
											}
										}
									}
								}
								JOINT mixamorig:RightHandMiddle1
								{
									OFFSET -12.775505 0.000000 -0.000000
									CHANNELS 6 Xposition Yposition Zposition Xrotation Yrotation Zrotation
									JOINT mixamorig:RightHandMiddle2
									{
										OFFSET -3.613998 0.000000 0.000000
										CHANNELS 3 Xrotation Yrotation Zrotation
										JOINT mixamorig:RightHandMiddle3
										{
											OFFSET -3.459793 0.000000 0.000000
											CHANNELS 3 Xrotation Yrotation Zrotation
											JOINT mixamorig:RightHandMiddle4
											{
												OFFSET -3.680214 0.000000 0.000000
												CHANNELS 3 Xrotation Yrotation Zrotation
												End Site
												{
													OFFSET -3.680176 0.000290 0.012574
												}
											}
										}
									}
								}
								JOINT mixamorig:RightHandRing1
								{
									OFFSET -12.147003 0.009995 -2.216600
									CHANNELS 6 Xposition Yposition Zposition Xrotation Yrotation Zrotation
									JOINT mixamorig:RightHandRing2
									{
										OFFSET -3.601196 0.000000 0.000000
										CHANNELS 3 Xrotation Yrotation Zrotation
										JOINT mixamorig:RightHandRing3
										{
											OFFSET -3.307304 0.000000 0.000000
											CHANNELS 3 Xrotation Yrotation Zrotation
											JOINT mixamorig:RightHandRing4
											{
												OFFSET -3.660103 0.000000 0.000000
												CHANNELS 3 Xrotation Yrotation Zrotation
												End Site
												{
													OFFSET -3.660103 0.000427 0.002204
												}
											}
										}
									}
								}
								JOINT mixamorig:RightHandPinky1
								{
									OFFSET -10.908203 -0.226105 -4.725801
									CHANNELS 6 Xposition Yposition Zposition Xrotation Yrotation Zrotation
									JOINT mixamorig:RightHandPinky2
									{
										OFFSET -4.136703 0.000000 0.000000
										CHANNELS 3 Xrotation Yrotation Zrotation
										JOINT mixamorig:RightHandPinky3
										{
											OFFSET -2.594803 0.000000 0.000000
											CHANNELS 3 Xrotation Yrotation Zrotation
											JOINT mixamorig:RightHandPinky4
											{
												OFFSET -2.923904 0.000000 0.000000
												CHANNELS 3 Xrotation Yrotation Zrotation
												End Site
												{
													OFFSET -2.923866 0.000595 -0.012896
												}
											}
										}
									}
								}
							}
						}
					}
				}
			}
		}
	}
	JOINT mixamorig:LeftUpLeg
	{
		OFFSET 9.124481 -6.656403 -0.055368
		CHANNELS 6 Xposition Yposition Zposition Xrotation Yrotation Zrotation
		JOINT mixamorig:LeftLeg
		{
			OFFSET 0.244688 -40.595383 -0.515629
			CHANNELS 3 Xrotation Yrotation Zrotation
			JOINT mixamorig:LeftFoot
			{
				OFFSET -0.244684 -42.047905 -2.059130
				CHANNELS 3 Xrotation Yrotation Zrotation
				JOINT mixamorig:LeftToeBase
				{
					OFFSET 0.373535 -7.208565 13.966596
					CHANNELS 3 Xrotation Yrotation Zrotation
					JOINT mixamorig:LeftToe_End
					{
						OFFSET -0.142057 -0.175231 9.997458
						CHANNELS 3 Xrotation Yrotation Zrotation
						End Site
						{
							OFFSET -0.142057 -0.175231 9.997458
						}
					}
				}
			}
		}
	}
	JOINT mixamorig:RightUpLeg
	{
		OFFSET -9.124419 -6.656395 -0.055432
		CHANNELS 6 Xposition Yposition Zposition Xrotation Yrotation Zrotation
		JOINT mixamorig:RightLeg
		{
			OFFSET -0.244683 -40.595413 -0.514284
			CHANNELS 3 Xrotation Yrotation Zrotation
			JOINT mixamorig:RightFoot
			{
				OFFSET 0.244687 -42.047836 -2.060526
				CHANNELS 3 Xrotation Yrotation Zrotation
				JOINT mixamorig:RightToeBase
				{
					OFFSET -0.373540 -7.208565 13.966594
					CHANNELS 3 Xrotation Yrotation Zrotation
					JOINT mixamorig:RightToe_End
					{
						OFFSET 0.141792 -0.175015 9.997463
						CHANNELS 3 Xrotation Yrotation Zrotation
						End Site
						{
							OFFSET 0.141792 -0.175015 9.997463
						}
					}
				}
			}
		}
	}
}
MOTION
Frames: 4
Frame Time: 0.033333
-0.002679 96.526756 0.300824 6.393860 1.804462 1.018018 0.000038 9.923503 -1.227298 5.617329 5.539630 -1.526027 0.385216 1.524075 -1.053133 0.375574 1.532047 -1.063667 -0.001306 15.032516 0.792901 -3.585710 6.802025 -5.670052 -0.000905 10.321818 3.142405 -22.733950 66.916921 4.154678 -0.001418 18.474716 6.636399 0.000000 -0.000000 0.000000 6.105007 9.110993 0.705598 0.511029 -6.002063 -11.691909 12.075591 -29.277008 -59.400536 -41.926604 -28.373999 -15.470288 -6.798400 20.517897 9.616582 3.788809 -2.167097 3.003007 46.385269 -9.591954 30.230468 3.675462 -2.122011 2.122022 -1.712249 23.027996 -6.196366 3.394357 -1.959740 1.959738 -25.230207 -32.356570 21.696516 2.679388 -1.546959 1.546955 0.000001 0.000003 0.000007 12.266606 -0.231790 2.822000 -0.288587 1.183857 -18.969413 0.396586 2.120653 -21.182843 0.012465 0.382014 -3.730640 -0.000000 -0.000001 0.000002 12.775508 0.000001 0.000002 8.718195 0.512769 -23.906944 0.232895 2.231722 -12.878968 -0.379135 1.235359 -3.908869 0.000000 -0.000000 -0.000002 12.147018 0.010011 -2.216604 0.906112 11.507389 -15.898903 -1.837853 2.954005 -34.817955 -2.711814 1.192105 -14.623087 0.000000 0.000001 0.000001 10.908208 -0.226102 -4.725801 7.985093 16.921654 -14.016231 0.914326 3.144549 -32.418677 0.914332 3.144561 -32.418660 -0.000003 0.000001 -0.000002 -6.106493 9.109995 0.705582 0.154143 11.293300 15.738865 21.160491 27.025247 69.210676 -47.070040 20.858131 2.954364 -11.630241 -1.458384 2.330879 -3.788792 -2.167109 3.003005 0.204581 9.459958 -16.435786 -3.675456 -2.122025 2.122029 0.099121 -6.535988 -0.165338 -3.394379 -1.959730 1.959737 4.627666 -0.659752 0.442310 -2.679403 -1.546932 1.546961 0.000003 0.000001 -0.000004 -12.266595 -0.231778 2.821999 0.187170 -4.140424 5.426704 0.089226 -0.908246 11.222031 0.123640 1.067059 -13.217336 0.000000 -0.000000 -0.000000 -12.775513 0.000002 -0.000003 2.350609 -6.797439 16.190516 0.066578 -0.785497 9.689208 0.001391 -0.114573 1.406681 -0.000001 0.000000 -0.000002 -12.147013 0.010003 -2.216602 5.748583 -7.109432 20.024571 0.044896 -0.645841 7.953967 0.083784 -0.880355 10.873104 -0.000000 -0.000001 0.000003 -10.908197 -0.226088 -4.725821 -14.031046 -39.653322 0.009783 0.457760 -2.015341 25.592418 0.457759 -2.015328 25.592396 -0.000000 -0.000001 0.000001 9.124482 -6.656422 -0.055367 -17.824897 2.463559 -0.330078 27.896929 -4.340986 -0.553284 -16.402937 -0.357674 1.358249 -2.580213 2.212820 -1.845413 -0.000000 -0.000000 0.000000 -9.124419 -6.656406 -0.055432 -10.814119 -12.299768 3.277497 23.679291 -0.956854 -2.600999 -19.599341 0.550048 -2.624248 -2.908014 2.719862 -2.156029 -0.000000 0.000000 0.000000 
-0.079720 96.551598 0.536790 6.021599 3.085295 0.697375 0.000038 9.923492 -1.227301 5.771696 5.602263 -1.691299 0.439773 1.547219 -1.075613 0.429680 1.555471 -1.086936 -0.001307 15.032536 0.792905 -3.508500 6.362776 -5.615875 -0.000905 10.321819 3.142403 -23.419906 62.493970 3.590825 -0.001421 18.474731 6.636400 -0.000000 0.000000 -0.000000 6.105005 9.110952 0.705606 0.511633 -5.882450 -11.733975 12.442518 -29.157302 -59.338512 -39.746896 -30.217143 -15.815892 -6.459686 21.579556 8.484369 3.788798 -2.167097 3.003008 43.139082 -9.045518 30.788324 3.675460 -2.122009 2.122026 0.899090 21.377812 -7.560524 3.394366 -1.959740 1.959742 -25.321304 -31.973758 20.595536 2.679404 -1.546934 1.546949 -0.000001 0.000003 -0.000003 12.266598 -0.231794 2.822002 -0.759916 0.618828 -18.802126 0.402637 2.136200 -21.345816 0.013767 0.401358 -3.919858 0.000000 0.000000 0.000001 12.775499 -0.000002 0.000003 8.274524 0.132862 -24.919175 0.253636 2.283345 -13.405145 -0.367946 1.290771 -4.417059 0.000000 -0.000001 0.000000 12.147003 0.010011 -2.216599 0.540110 10.949615 -15.613553 -1.800200 3.028061 -35.359237 -2.688471 1.271627 -15.172692 -0.000002 -0.000001 -0.000002 10.908197 -0.226085 -4.725799 7.299884 15.749054 -13.635082 0.899386 3.120923 -32.145059 0.894910 3.113810 -32.062841 -0.000002 -0.000000 0.000000 -6.106495 9.110005 0.705587 0.191111 11.209604 15.414303 21.319785 27.374329 70.402380 -48.634301 21.521069 2.334900 -11.608428 -2.120663 3.284209 -3.788800 -2.167094 3.003002 -2.079933 9.160786 -17.920060 -3.675442 -2.122025 2.122025 2.259850 -4.902513 1.164786 -3.394393 -1.959704 1.959737 5.010776 -0.782723 1.332316 -2.679403 -1.546957 1.546960 0.000004 0.000000 -0.000004 -12.266603 -0.231781 2.821998 -0.285877 -3.566632 5.276100 0.092333 -0.923743 11.416055 0.118835 1.046400 -12.956913 0.000000 0.000001 -0.000000 -12.775506 -0.000002 -0.000003 2.063261 -6.477148 17.266064 0.074432 -0.830215 10.246745 0.002619 -0.156723 1.924209 0.000000 0.000001 0.000000 -12.147006 0.010006 -2.216603 5.387820 -6.601754 19.684011 0.052873 -0.700503 8.632169 0.092715 -0.925640 11.439840 -0.000001 -0.000001 0.000003 -10.908202 -0.226088 -4.725817 -14.374417 -38.364141 0.258555 0.450705 -2.000562 25.391293 0.446251 -1.991159 25.263307 -0.000002 -0.000003 -0.000000 9.124482 -6.656408 -0.055368 -17.463942 1.914488 -0.317388 28.047769 -5.169850 -0.224340 -16.682624 -0.296500 1.362656 -2.477286 2.194201 -2.264746 -0.000000 0.000000 0.000000 -9.124419 -6.656403 -0.055432 -9.904242 -12.245905 3.632836 23.144449 -2.191506 -2.220433 -19.611613 0.686822 -2.959643 -2.962894 2.645740 -2.124117 -0.000000 0.000000 0.000000 
-0.148402 96.455544 0.715451 5.679912 4.706574 0.288045 0.000038 9.923502 -1.227300 5.939549 5.358071 -1.693886 0.492177 1.481873 -1.056788 0.482576 1.490070 -1.068008 -0.001308 15.032524 0.792899 -3.346852 5.812393 -5.392785 -0.000901 10.321820 3.142400 -23.103373 56.905748 2.669099 -0.001411 18.474701 6.636400 -0.000000 -0.000000 0.000000 6.105002 9.110942 0.705597 0.472716 -6.272571 -12.320004 13.344502 -28.194761 -58.985118 -38.568477 -32.263980 -16.568318 -6.169255 22.018856 7.543317 3.788796 -2.167090 3.003018 39.637801 -8.774841 31.294861 3.675478 -2.122018 2.122031 3.965984 19.538125 -9.057915 3.394369 -1.959740 1.959727 -25.357853 -31.453117 19.154709 2.679407 -1.546939 1.546955 -0.000004 -0.000004 0.000003 12.266595 -0.231800 2.822000 -1.257046 -0.013134 -18.404435 0.405044 2.142356 -21.410404 0.014727 0.415303 -4.056320 -0.000000 -0.000001 0.000001 12.775508 0.000002 0.000001 7.715155 -0.243196 -25.778087 0.269649 2.317913 -13.871248 -0.359247 1.326203 -4.833531 -0.000000 0.000000 -0.000001 12.147007 0.010010 -2.216604 0.085104 10.229934 -15.200967 -1.744067 3.086048 -35.760808 -2.644171 1.338964 -15.599192 0.000002 0.000000 -0.000001 10.908197 -0.226104 -4.725801 6.488330 14.343343 -13.246553 0.876465 3.084221 -31.721837 0.860095 3.057615 -31.416165 0.000002 -0.000000 -0.000001 -6.106496 9.109985 0.705580 0.235017 10.904941 15.133001 21.416553 27.552307 71.101798 -47.605923 22.240402 1.216844 -11.531913 -2.224073 3.410277 -3.788804 -2.167099 3.003002 -4.444207 9.142974 -19.095734 -3.675454 -2.122036 2.122023 4.739378 -3.116718 2.728740 -3.394378 -1.959718 1.959736 5.434648 -1.331655 2.356415 -2.679395 -1.546958 1.546961 0.000004 0.000000 -0.000004 -12.266602 -0.231774 2.821999 -0.775339 -2.902643 4.948796 0.094737 -0.935609 11.564743 0.112904 1.020264 -12.627775 -0.000000 0.000000 0.000000 -12.775504 0.000005 -0.000003 1.705509 -6.092571 18.229778 0.082651 -0.874515 10.799941 0.003964 -0.192412 2.362740 0.000000 -0.000001 0.000001 -12.147018 0.010019 -2.216602 4.918987 -5.982467 19.198864 0.062684 -0.762380 9.401389 0.100411 -0.962829 11.906128 0.000001 -0.000001 0.000001 -10.908204 -0.226087 -4.725813 -14.541485 -36.752118 0.830098 0.442848 -1.983927 25.165130 0.426515 -1.948820 24.689303 -0.000001 -0.000002 0.000001 9.124483 -6.656417 -0.055365 -17.561328 1.601137 -0.299306 29.138263 -6.153076 0.426888 -17.801886 -0.033159 1.282379 -2.315738 2.349332 -3.566127 -0.000000 0.000000 0.000000 -9.124418 -6.656405 -0.055432 -9.322908 -12.486374 4.070108 23.143432 -3.585935 -2.021125 -19.948534 0.774597 -3.044759 -2.831457 2.535233 -2.041109 0.000000 -0.000000 0.000000 
-0.208791 96.172928 0.751880 5.487192 6.362743 -0.177994 0.000038 9.923500 -1.227301 6.098654 4.732630 -1.654969 0.517528 1.311186 -1.021563 0.509115 1.319664 -1.031492 -0.001306 15.032505 0.792910 -3.190802 5.196195 -5.025783 -0.000898 10.321794 3.142404 -22.652748 50.105154 2.931698 -0.001420 18.474701 6.636401 -0.000000 -0.000001 0.000000 6.105010 9.110959 0.705605 0.430342 -6.690705 -12.845345 13.858200 -26.821596 -58.961540 -38.995189 -33.292319 -17.319306 -6.109618 21.394181 7.287687 3.788793 -2.167092 3.003004 36.502180 -9.361987 31.802293 3.675474 -2.122016 2.122030 7.348612 17.587872 -10.605242 3.394361 -1.959725 1.959734 -25.364341 -30.651693 16.980899 2.679407 -1.546931 1.546955 -0.000001 -0.000002 0.000003 12.266589 -0.231801 2.822000 -1.703040 -0.710440 -17.389206 0.400597 2.130996 -21.291235 0.014731 0.415236 -4.055652 -0.000000 0.000000 0.000004 12.775496 0.000017 0.000000 7.093201 -0.576669 -25.855623 0.270794 2.313912 -14.005975 -0.354387 1.316398 -4.889466 -0.000000 0.000000 0.000001 12.147018 0.010010 -2.216605 -0.435120 9.388621 -14.397924 -1.688301 3.092070 -35.755029 -2.586690 1.349028 -15.636813 -0.000002 0.000001 0.000001 10.908199 -0.226104 -4.725801 5.674243 12.914473 -12.924606 0.838290 3.021669 -31.005050 0.803194 2.962558 -30.332324 -0.000003 0.000000 -0.000001 -6.106489 9.109970 0.705587 0.240426 10.765552 15.210437 21.236761 26.473219 71.215282 -44.862632 23.386248 0.683300 -11.348263 -2.223339 2.744811 -3.788787 -2.167106 3.003006 -6.310756 9.862165 -19.641251 -3.675447 -2.122020 2.122025 7.430390 -1.281435 4.459997 -3.394386 -1.959730 1.959734 6.106778 -2.248633 3.860796 -2.679395 -1.546954 1.546961 0.000001 0.000003 -0.000004 -12.266600 -0.231798 2.821999 -1.228201 -2.166440 4.058302 0.095061 -0.937114 11.583606 0.107349 0.995170 -12.312191 -0.000000 -0.000000 -0.000000 -12.775505 0.000001 -0.000003 1.260156 -5.629278 18.449405 0.086744 -0.895641 11.064149 0.004262 -0.199796 2.453412 -0.000001 -0.000001 -0.000000 -12.146997 0.010003 -2.216604 4.381790 -5.319893 18.314297 0.070844 -0.810186 9.996903 0.102044 -0.970612 12.003785 -0.000001 -0.000001 -0.000002 -10.908197 -0.226089 -4.725819 -14.460694 -35.031299 1.683885 0.429335 -1.954940 24.772135 0.394319 -1.877240 23.724869 0.000004 0.000001 0.000001 9.124482 -6.656412 -0.055366 -18.328019 1.090358 -0.113711 31.104740 -5.988086 0.943609 -19.214869 0.322528 0.903362 -1.969526 2.119513 -3.355718 0.000000 0.000000 -0.000000 -9.124419 -6.656396 -0.055431 -9.633219 -13.192195 4.796573 24.469313 -4.615351 -2.722833 -21.115209 0.729235 -2.731614 -2.416844 2.217887 -1.795017 0.000000 0.000000 0.000000 
